:SAMPLES-PER-SECOND 30
:FULLY-SPECIFIED
:DEGREES
655
root  -59.0105 33.652 -1.70532 -0.739319 -71.6612 -0.811829
RightUpLeg  -43.2945 -24.6251 -0.0168311
RightLeg  64.1563 2.56168 5.13999
RightFoot  -15.8493 -0.374359 -6.78749
RightToes  2.91037e-010 0 -3.6325e-017
Spine  105.002 -23.008 12.6064
Spine1  -18.3683 -5.81511 -1.4855
HEad  -39.7915 -7.55081 1.37128
LeftShoulder1  0.598798 -23.2031 7.10388
LeftArm  -69.6797 -53.809 6.00324
LeftForeArm  -11.7042 -16.3806 2.81725
LeftHand  -0.0295414 3.69356 0.643974
RightShoulder  -0.0161045 14.7259 -9.7785
RightArm  -51.2062 48.7106 -11.7435
RightForeArm  -36.2292 8.39146 -3.40554
RightHand  -0.784423 12.8166 -5.41328
LeftUpLeg  -45.0718 -7.38299 1.87228
LeftLeg  62.7994 -1.93025 -3.48216
LeftFoot  -13.2523 0.127678 2.87809
LeftToes  -7.53974e-010 3.3384e-011 -1.25048e-011
656
root  -58.8853 33.8984 -1.70398 -1.28152 -72.0193 -0.039978
RightUpLeg  -42.973 -24.4116 -0.108775
RightLeg  62.6384 2.8013 5.30334
RightFoot  -15.002 -0.319357 -6.80284
RightToes  2.91037e-010 0 -3.6325e-017
Spine  104.338 -22.5534 12.6341
Spine1  -18.0847 -5.62056 -1.46538
HEad  -39.8129 -7.90249 0.802734
LeftShoulder1  0.747521 -23.3117 6.48356
LeftArm  -70.2171 -54.2417 6.00339
LeftForeArm  -7.81838 -16.5572 2.6996
LeftHand  -0.0332072 3.8605 0.996004
RightShoulder  0.015062 14.7858 -9.5821
RightArm  -50.9914 49.6938 -12.1361
RightForeArm  -35.221 6.72953 -3.45119
RightHand  -0.845835 12.6294 -5.86971
LeftUpLeg  -44.6074 -7.49295 1.72807
LeftLeg  61.2481 -1.95105 -3.27485
LeftFoot  -12.2056 0.0916222 2.39678
LeftToes  -7.53974e-010 3.3384e-011 -1.25048e-011
657
root  -58.7885 34.2241 -1.68227 -0.692596 -71.9866 -0.0413818
RightUpLeg  -42.6958 -24.1319 0.0668723
RightLeg  60.6369 2.89701 5.03065
RightFoot  -14.0895 -0.248962 -6.40349
RightToes  2.91037e-010 0 -3.6325e-017
Spine  102.834 -22.63 13.1642
Spine1  -17.6177 -5.63837 -1.59153
HEad  -39.1636 -8.17521 0.62619
LeftShoulder1  0.927956 -23.3121 5.71939
LeftArm  -69.2631 -54.9441 4.69756
LeftForeArm  -8.00947 -16.5581 2.60203
LeftHand  -0.0288758 4.89996 1.26168
RightShoulder  0.132824 14.6249 -8.84321
RightArm  -50.7556 50.9032 -11.3741
RightForeArm  -35.3958 6.03258 -3.38952
RightHand  -0.940197 12.1691 -6.57115
LeftUpLeg  -44.3946 -7.73752 1.85801
LeftLeg  59.3691 -2.20028 -3.47664
LeftFoot  -11.1206 0.0634741 1.69114
LeftToes  -7.53974e-010 3.3384e-011 -1.25048e-011
658
root  -58.6452 34.6786 -1.73723 -1.83275 -72.3427 1.6366
RightUpLeg  -42.0664 -23.8122 -0.0996469
RightLeg  57.8515 3.23121 5.0614
RightFoot  -12.6358 -0.157241 -6.4408
RightToes  2.91037e-010 0 -3.6325e-017
Spine  101.556 -21.9813 12.8888
Spine1  -16.8183 -5.69662 -1.95862
HEad  -39.6505 -8.08862 0.69635
LeftShoulder1  1.31689 -22.7447 3.93106
LeftArm  -67.4182 -56.4076 2.17071
LeftForeArm  -10.5533 -16.2779 2.75401
LeftHand  -0.0678481 4.04104 3.32861
RightShoulder  0.348436 14.1131 -7.37526
RightArm  -51.6498 52.731 -8.9629
RightForeArm  -36.6308 6.15796 -3.74542
RightHand  -1.36421 14.1093 -8.54154
LeftUpLeg  -43.5263 -7.7997 1.54758
LeftLeg  56.4439 -2.19156 -3.06288
LeftFoot  -9.17906 0.0280351 1.43635
LeftToes  -7.53974e-010 3.3384e-011 -1.25048e-011
659
root  -58.5128 35.1606 -1.80842 -1.8177 -72.5632 2.81506
RightUpLeg  -42.0635 -23.7616 0.3062
RightLeg  54.6944 3.56117 4.96156
RightFoot  -10.929 -0.0499221 -6.77271
RightToes  2.91037e-010 0 -3.6325e-017
Spine  99.4128 -21.1396 13.0996
Spine1  -16.7455 -5.61184 -1.76931
HEad  -38.9043 -8.83304 -0.43222
LeftShoulder1  1.93017 -21.5117 0.877987
LeftArm  -61.5565 -58.5565 -3.24283
LeftForeArm  -13.1915 -15.5053 3.02042
LeftHand  -0.215861 1.0892 5.90113
RightShoulder  0.756406 12.7306 -4.35045
RightArm  -51.7363 55.6424 -4.96589
RightForeArm  -34.745 7.24163 -3.94044
RightHand  -1.44785 14.076 -9.01412
LeftUpLeg  -43.1776 -7.9638 1.51312
LeftLeg  53.0742 -2.12485 -2.56739
LeftFoot  -7.17821 -0.00554887 1.32164
LeftToes  -7.53974e-010 3.3384e-011 -1.25048e-011
660
root  -58.3719 35.5581 -1.87942 -0.346725 -72.9577 3.13147
RightUpLeg  -42.9966 -23.7728 1.33135
RightLeg  51.8678 4.18367 5.3063
RightFoot  -9.29539 0.0585424 -6.76911
RightToes  2.91037e-010 0 -3.6325e-017
Spine  95.6155 -20.1956 13.7296
Spine1  -15.3611 -5.54056 -1.81271
HEad  -39.6892 -8.48708 -0.450012
LeftShoulder1  2.37316 -20.4234 -1.63287
LeftArm  -54.6603 -59.4788 -9.39575
LeftForeArm  -13.9961 -14.8407 2.90717
LeftHand  -0.234796 1.28006 6.53953
RightShoulder  1.00221 12.1529 -2.34131
RightArm  -48.249 56.7781 1.19679
RightForeArm  -35.1398 8.49226 -3.59017
RightHand  -1.89019 15.5695 -10.8383
LeftUpLeg  -43.6506 -7.82197 1.85698
LeftLeg  49.8929 -2.23597 -2.4175
LeftFoot  -5.71864 -0.0187217 1.10545
LeftToes  -7.53974e-010 3.3384e-011 -1.25048e-011
661
root  -58.1966 36.1169 -2.02147 -1.10994 -73.5759 4.4809
RightUpLeg  -41.969 -23.7259 1.65033
RightLeg  47.9689 5.0937 5.66628
RightFoot  -7.19159 0.203589 -6.95063
RightToes  2.91037e-010 0 -3.6325e-017
Spine  93.0952 -19.1632 13.3985
Spine1  -14.0165 -5.64414 -2.30775
HEad  -39.7598 -8.16881 -0.878967
LeftShoulder1  2.86483 -18.975 -4.8475
LeftArm  -44.1192 -59.2322 -16.3328
LeftForeArm  -14.4566 -13.5691 2.21406
LeftHand  -0.218024 1.59142 6.50677
RightShoulder  1.23416 11.035 0.0880356
RightArm  -41.9602 58.6854 9.63699
RightForeArm  -33.916 8.42026 -2.90208
RightHand  -2.18652 15.8317 -12.3156
LeftUpLeg  -42.2307 -7.83903 1.92458
LeftLeg  45.7641 -2.10439 -1.91897
LeftFoot  -3.71883 0.0043194 0.251447
LeftToes  -7.53974e-010 3.3384e-011 -1.25048e-011
662
root  -57.9672 36.6866 -2.1939 -2.60364 -74.0329 6.27588
RightUpLeg  -40.5763 -24.2734 1.88139
RightLeg  43.8005 6.46786 6.28699
RightFoot  -4.77966 0.39122 -7.33911
RightToes  2.91037e-010 0 -3.6325e-017
Spine  90.3969 -17.7587 13.1051
Spine1  -12.6035 -5.37246 -2.18499
HEad  -39.6329 -8.8685 -2.05948
LeftShoulder1  3.30087 -17.4336 -8.21063
LeftArm  -33.7735 -58.018 -25.2741
LeftForeArm  -11.729 -12.2866 1.14554
LeftHand  -0.199488 1.85035 6.40312
RightShoulder  1.42213 9.33223 2.97235
RightArm  -33.1072 60.0412 18.6129
RightForeArm  -31.0182 7.43872 -1.66489
RightHand  -1.94811 14.8453 -11.5431
LeftUpLeg  -40.4854 -8.0056 1.90377
LeftLeg  41.2765 -1.85141 -1.37091
LeftFoot  -0.890266 0.0616625 -0.583073
LeftToes  -7.53974e-010 3.3384e-011 -1.25048e-011
663
root  -57.7433 37.1273 -2.32427 -2.8938 -74.0321 7.25659
RightUpLeg  -39.9209 -25.3466 2.51578
RightLeg  40.1345 7.82723 6.72687
RightFoot  -2.50622 0.589433 -7.86045
RightToes  2.91037e-010 0 -3.6325e-017
Spine  86.2971 -16.6009 13.6022
Spine1  -10.3244 -5.07353 -1.72138
HEad  -40.5966 -8.99808 -2.34052
LeftShoulder1  3.50872 -16.2687 -10.4785
LeftArm  -25.5846 -55.588 -33.1484
LeftForeArm  -7.79636 -10.6299 -0.000695443
LeftHand  -0.112303 3.65547 5.9794
RightShoulder  1.59091 8.7148 5.22057
RightArm  -24.3422 58.9754 25.5317
RightForeArm  -30.3825 5.64989 -0.210661
RightHand  -1.9789 15.4242 -11.398
LeftUpLeg  -39.9212 -8.46355 2.22154
LeftLeg  37.8788 -2.03504 -1.31968
LeftFoot  1.91731 0.269819 -2.43231
LeftToes  -7.53974e-010 3.3384e-011 -1.25048e-011
664
root  -57.4736 37.6419 -2.58505 -8.31874 -74.5843 11.9732
RightUpLeg  -37.2352 -25.3544 1.46994
RightLeg  35.8597 9.08866 6.729
RightFoot  -0.412338 0.709919 -7.42294
RightToes  2.91037e-010 0 -3.6325e-017
Spine  84.4687 -15.2202 11.9204
Spine1  -9.61401 -5.42316 -2.8054
HEad  -39.3714 -8.16765 -2.17319
LeftShoulder1  3.80892 -14.715 -13.9286
LeftArm  -18.7129 -51.0223 -37.4429
LeftForeArm  -2.82779 -9.05464 -2.2997
LeftHand  -0.021485 5.39725 3.99913
RightShoulder  1.62248 7.52605 7.09774
RightArm  -14.1563 56.6816 37.8773
RightForeArm  -27.7667 4.91817 0.863041
RightHand  -2.12744 15.6199 -12.1129
LeftUpLeg  -36.9935 -6.65305 1.00053
LeftLeg  33.3348 -3.51822 -2.15283
LeftFoot  5.23067 0.506357 -3.67117
LeftToes  -7.53974e-010 3.3384e-011 -1.25048e-011
